<svg width="64" height="64" viewBox="0 0 64 64" fill="none" xmlns="http://www.w3.org/2000/svg">
<path d="M51 25C51 24.4333 50.8 23.95 50.4 23.55C50.0333 23.1833 49.5667 23 49 23C48.4333 23 47.9667 23.1833 47.6 23.55C47.2 23.95 47 24.4333 47 25C47 25.5333 47.2 26 47.6 26.4C47.9667 26.8 48.4333 27 49 27C49.5667 27 50.0333 26.8 50.4 26.4C50.8 26 51 25.5333 51 25ZM43 25C43 24.4333 42.8 23.95 42.4 23.55C42.0333 23.1833 41.5667 23 41 23C40.4333 23 39.9667 23.1833 39.6 23.55C39.2 23.95 39 24.4333 39 25C39 25.5333 39.2 26 39.6 26.4C39.9667 26.8 40.4333 27 41 27C41.5667 27 42.0333 26.8 42.4 26.4C42.8 26 43 25.5333 43 25ZM47 22C47 21.4333 46.8 20.95 46.4 20.55C46.0333 20.1833 45.5667 20 45 20C44.4333 20 43.9667 20.1833 43.6 20.55C43.2 20.95 43 21.4333 43 22C43 22.5333 43.2 23 43.6 23.4C43.9667 23.8 44.4333 24 45 24C45.5667 24 46.0333 23.8 46.4 23.4C46.8 23 47 22.5333 47 22ZM24.3 15.75H39.7C40.3667 15.45 41.0333 15.2 41.7 15C45.2667 14.9333 47.9833 15.7167 49.85 17.35L50.8 18.9L51.25 19.1L52.05 20.15C53.3833 24.9167 54.5 30.4 55.4 36.6C56 39.9333 56.15 42.55 55.85 44.45C55.35 46.1167 54.25 47.25 52.55 47.85C51.0833 48.2167 49.8167 47.8667 48.75 46.8L45.65 41.25C44.8833 39.1167 43.6667 38.1167 42 38.25H32V38.2L22 38.25C20.3333 38.1167 19.1 39.1167 18.3 41.25L15.2 46.8C14.1667 47.8333 12.9167 48.1833 11.45 47.85C9.75 47.25 8.65 46.1167 8.15 44.45C7.85 42.55 8 39.9333 8.6 36.6C9.5 30.4 10.6167 24.9167 11.95 20.15L12.75 19.1L13.2 18.9L14.15 17.3C16.0167 15.6667 18.7333 14.9 22.3 15L24.3 15.75ZM24 29V31H22V33H24V35H26V33H28V31H26V29H24ZM41 32C41 31.1667 40.7 30.45 40.1 29.85C39.5333 29.2833 38.8333 29 38 29C37.1667 29 36.45 29.2833 35.85 29.85C35.2833 30.45 35 31.1667 35 32C35 32.8 35.2833 33.4833 35.85 34.05C36.45 34.6833 37.1667 35 38 35C38.8333 35 39.5333 34.6833 40.1 34.05C40.7 33.4833 41 32.8 41 32ZM22 24C22 23.1667 21.7 22.45 21.1 21.85C20.5333 21.2833 19.8333 21 19 21C18.1667 21 17.45 21.2833 16.85 21.85C16.2833 22.45 16 23.1667 16 24C16 24.8 16.2833 25.4833 16.85 26.05C17.45 26.6833 18.1667 27 19 27C19.8333 27 20.5333 26.6833 21.1 26.05C21.7 25.4833 22 24.8 22 24ZM47 28C47 27.4333 46.8 26.95 46.4 26.55C46.0333 26.1833 45.5667 26 45 26C44.4333 26 43.9667 26.1833 43.6 26.55C43.2 26.95 43 27.4333 43 28C43 28.5333 43.2 29 43.6 29.4C43.9667 29.8 44.4333 30 45 30C45.5667 30 46.0333 29.8 46.4 29.4C46.8 29 47 28.5333 47 28Z" fill="white"/>
</svg>
