<svg width="64" height="64" viewBox="0 0 64 64" fill="none" xmlns="http://www.w3.org/2000/svg">
<path d="M27 8H37C39.6667 8 41 9.33333 41 12V23H52C54.6667 23 56 24.3333 56 27V37C56 39.6667 54.6667 41 52 41H41V52C41 54.6667 39.6667 56 37 56H27C24.3333 56 23 54.6667 23 52V41H12C9.33333 41 8 39.6667 8 37V27C8 24.3333 9.33333 23 12 23H23V12C23 9.33333 24.3333 8 27 8ZM35.7 48C35.9667 47.6 36.05 47.1667 35.95 46.7C35.9167 46.2 35.7167 45.8 35.35 45.5C34.9833 45.1667 34.5667 45 34.1 45H29.95C29.45 45 29.0167 45.1667 28.65 45.5C28.2833 45.8 28.0667 46.2 28 46.7C27.9333 47.1667 28.0333 47.6 28.3 48L30.35 51.15C30.6167 51.4833 30.9667 51.7333 31.4 51.9C31.8 52.0333 32.2167 52.0333 32.65 51.9L33.6 51.15L35.7 48ZM37 11H27C26.3333 11 26 11.3333 26 12V26H12C11.3333 26 11 26.3333 11 27V37C11 37.6667 11.3333 38 12 38H52C52.6667 38 53 37.6667 53 37V27C53 26.3333 52.6667 26 52 26H38V12C38 11.3333 37.6667 11 37 11Z" fill="white"/>
</svg>
