<svg width="64" height="64" viewBox="0 0 64 64" fill="none" xmlns="http://www.w3.org/2000/svg">
<path d="M16 11C12.6667 11 11 12.6667 11 16V48C11 51.3333 12.6667 53 16 53H48C51.3333 53 53 51.3333 53 48V16C53 12.6667 51.3333 11 48 11H16ZM16 8H48C53.3333 8 56 10.6667 56 16V48C56 53.3333 53.3333 56 48 56H16C10.6667 56 8 53.3333 8 48V16C8 10.6667 10.6667 8 16 8ZM46 32C46 35.8667 44.6333 39.1667 41.9 41.9C39.1667 44.6333 35.8667 46 32 46C28.1333 46 24.8167 44.6333 22.05 41.9C19.35 39.1667 18 35.8667 18 32C18 28.1333 19.35 24.8167 22.05 22.05C24.8167 19.35 28.1333 18 32 18C35.8667 18 39.1667 19.35 41.9 22.05C44.6333 24.8167 46 28.1333 46 32Z" fill="white"/>
</svg>
