<svg width="64" height="64" viewBox="0 0 64 64" fill="none" xmlns="http://www.w3.org/2000/svg">
<path d="M27 8H37C39.6667 8 41 9.33333 41 12V23H52C54.6667 23 56 24.3333 56 27V37C56 39.6667 54.6667 41 52 41H41V52C41 54.6667 39.6667 56 37 56H27C24.3333 56 23 54.6667 23 52V41H12C9.33333 41 8 39.6667 8 37V27C8 24.3333 9.33333 23 12 23H23V12C23 9.33333 24.3333 8 27 8ZM37 11H27C26.3333 11 26 11.3333 26 12V26H12C11.3333 26 11 26.3333 11 27V37C11 37.6667 11.3333 38 12 38H26V52C26 52.6667 26.3333 53 27 53H37C37.6667 53 38 52.6667 38 52V12C38 11.3333 37.6667 11 37 11ZM48 28.3C47.6 28.0333 47.1667 27.95 46.7 28.05C46.2 28.0833 45.8 28.2833 45.5 28.65C45.1667 29.0167 45 29.4333 45 29.9V34.05C45 34.55 45.1667 34.9833 45.5 35.35C45.8 35.7167 46.2 35.9333 46.7 36L48 35.7L51.15 33.65L51.9 32.6C52.0333 32.2 52.0333 31.7833 51.9 31.35L51.15 30.4L48 28.3Z" fill="white"/>
</svg>
