<svg width="64" height="64" viewBox="0 0 64 64" fill="none" xmlns="http://www.w3.org/2000/svg">
<path d="M18 12H38C42.4 12 46.1667 13.5667 49.3 16.7C52.4333 19.8333 54 23.6 54 28V44C54 49.3333 51.3333 52 46 52H18C12.6667 52 10 49.3333 10 44V20C10 17.6333 10.5333 15.7833 11.6 14.45C12.5667 13.25 13.9833 12.5 15.85 12.2L18 12ZM18 15C14.6667 15 13 16.6667 13 20V44C13 47.3333 14.6667 49 18 49H46C49.3333 49 51 47.3333 51 44V28C51 24.4333 49.7333 21.3833 47.2 18.85C44.6333 16.2833 41.5667 15 38 15H18ZM24 22H34.2C35.2333 22.0333 36.1667 22.3 37 22.8L38.2 23.7L38.25 23.75C39.4167 24.9167 40 26.3333 40 28V30C40 31.6333 39.4167 33.0333 38.25 34.2L38.2 34.25L38.1 34.35L40 42H36L34.5 36H34H28V42H24V22ZM28 26V32H34C34.5333 32 34.9833 31.8167 35.35 31.45L35.45 31.35C35.8167 30.9833 36 30.5333 36 30V28C36 27.4333 35.8167 26.9667 35.45 26.6H35.4C35 26.2 34.5333 26 34 26H28Z" fill="white"/>
</svg>
