<svg width="64" height="64" viewBox="0 0 64 64" fill="none" xmlns="http://www.w3.org/2000/svg">
<g clip-path="url(#clip0_1_5747)">
<path fill-rule="evenodd" clip-rule="evenodd" d="M56 28.108C56 25.4414 54.6667 24.108 52 24.108H12C9.33333 24.108 8 25.4414 8 28.108V32.258C8.03333 34.3914 8.83333 36.2414 10.4 37.808C11.8667 39.2747 13.65 40.0414 15.75 40.108H20V52.108C20 54.6747 21.25 56.008 23.75 56.108H40.25C42.75 56.008 44 54.6747 44 52.108V40.108H48.25C50.35 40.0414 52.1667 39.2747 53.7 37.808C55.1667 36.2747 55.9333 34.4747 56 32.408V28.108ZM24.45 10.958L30.85 17.608C31.15 17.9414 31.5333 18.108 32 18.108C32.4333 18.108 32.8167 17.9414 33.15 17.608L39.55 10.958C39.85 10.6247 40 10.2247 40 9.75803C40 9.29137 39.85 8.90803 39.55 8.60803C39.2167 8.2747 38.8333 8.10803 38.4 8.10803H25.6C25.1333 8.10803 24.75 8.2747 24.45 8.60803C24.15 8.90803 24 9.29137 24 9.75803C24 10.2247 24.15 10.6247 24.45 10.958ZM29 35.108V39.108H32.05C32.5833 39.108 33.0333 38.908 33.4 38.508C33.8 38.1414 34 37.6747 34 37.108C34 36.5414 33.8 36.058 33.4 35.658C33.0333 35.2914 32.5667 35.108 32 35.108H29ZM33 42.008L32 42.108H29V45.108H26V32.108H32C33.3667 32.108 34.5333 32.5914 35.5 33.558C36.5 34.558 37 35.7414 37 37.108C37 38.4747 36.5 39.6414 35.5 40.608L37 45.108H34L33 42.108V42.008Z" fill="white"/>
</g>
<defs>
<clipPath id="clip0_1_5747">
<rect width="64" height="64" fill="white"/>
</clipPath>
</defs>
</svg>
