<svg width="64" height="64" viewBox="0 0 64 64" fill="none" xmlns="http://www.w3.org/2000/svg">
<path d="M44 13H36C30.2 13 25.2667 15.05 21.2 19.15C17.0667 23.25 15 28.1833 15 33.95V46C15 49.3333 16.6667 51 20 51H44C47.3333 51 49 49.3333 49 46V18C49 14.6667 47.3333 13 44 13ZM44 10C49.3333 10 52 12.6667 52 18V46C52 51.3333 49.3333 54 44 54H20C14.6667 54 12 51.3333 12 46V33.95C12 27.35 14.35 21.7 19.05 17C23.7167 12.3333 29.3667 10 36 10H44ZM39 44H45V47H36V34H39V44ZM20 33V30H33V34L24 44H33V47H20V43L29 33H20Z" fill="white"/>
</svg>
