<svg width="64" height="64" viewBox="0 0 64 64" fill="none" xmlns="http://www.w3.org/2000/svg">
<path d="M27 8H37C39.6667 8 41 9.33333 41 12V23H52C54.6667 23 56 24.3333 56 27V37C56 39.6667 54.6667 41 52 41H41V52C41 54.6667 39.6667 56 37 56H27C24.3333 56 23 54.6667 23 52V41H12C9.33333 41 8 39.6667 8 37V27C8 24.3333 9.33333 23 12 23H23V12C23 9.33333 24.3333 8 27 8ZM12 26C11.3333 26 11 26.3333 11 27V37C11 37.6667 11.3333 38 12 38H26V52C26 52.6667 26.3333 53 27 53H37C37.6667 53 38 52.6667 38 52V38H52C52.6667 38 53 37.6667 53 37V27C53 26.3333 52.6667 26 52 26H12ZM35.7 16L33.6 12.85L32.65 12.1C32.2167 11.9667 31.8 11.9667 31.4 12.1C30.9667 12.2667 30.6167 12.5167 30.35 12.85L28.3 16C28.0333 16.4 27.9333 16.8333 28 17.3C28.0667 17.8 28.2833 18.2 28.65 18.5C29.0167 18.8333 29.45 19 29.95 19H34.1C34.5667 19 34.9833 18.8333 35.35 18.5C35.7167 18.2 35.9167 17.8 35.95 17.3C36.05 16.8333 35.9667 16.4 35.7 16Z" fill="white"/>
</svg>
