<svg width="64" height="64" viewBox="0 0 64 64" fill="none" xmlns="http://www.w3.org/2000/svg">
<path d="M56 32C56 38.6667 53.65 44.3167 48.95 48.95C44.3167 53.65 38.6667 56 32 56C25.3667 56 19.7 53.65 15 48.95C10.3333 44.3167 8 38.6667 8 32C8 25.3667 10.3333 19.7 15 15C19.7 10.3333 25.3667 8 32 8C38.6667 8 44.3167 10.3333 48.95 15C53.65 19.7 56 25.3667 56 32ZM20.6 30.55L30.6 20.6C30.9667 20.2 31.4333 20 32 20C32.5667 20 33.05 20.2 33.45 20.6L43.45 30.55C43.8167 30.9167 44 31.3833 44 31.95V33.05C44 33.6167 43.8167 34.1 43.45 34.5C43.05 34.8667 42.5667 35.05 42 35.05H40V41C40 41.5667 39.8167 42.05 39.45 42.45C39.05 42.8167 38.5667 43 38 43H26C25.4333 43 24.9667 42.8167 24.6 42.45C24.2 42.05 24 41.5667 24 41V35.05H22C21.4333 35.05 20.9667 34.8667 20.6 34.5C20.2 34.1 20 33.6167 20 33.05V31.95C20 31.3833 20.2 30.9167 20.6 30.55ZM28 39H36V31H28V39ZM32 11C26.2 11 21.25 13.05 17.15 17.15C13.05 21.25 11 26.2 11 32C11 37.8333 13.05 42.7833 17.15 46.85C21.25 50.95 26.2 53 32 53C37.8333 53 42.7833 50.95 46.85 46.85C50.95 42.7833 53 37.8333 53 32C53 26.2 50.95 21.25 46.85 17.15C42.7833 13.05 37.8333 11 32 11Z" fill="white"/>
</svg>
