<svg width="64" height="64" viewBox="0 0 64 64" fill="none" xmlns="http://www.w3.org/2000/svg">
<path d="M41 44H38V47H35V34H41C42.3667 34 43.5333 34.4833 44.5 35.45C45.5 36.45 46 37.6333 46 39C46 40.3667 45.5 41.5333 44.5 42.5L46 47H43L42 44V43.9L41 44ZM38 41H41.05C41.5833 41 42.0333 40.8 42.4 40.4C42.8 40.0333 43 39.5667 43 39C43 38.4333 42.8 37.95 42.4 37.55C42.0333 37.1833 41.5667 37 41 37H38V41ZM20 10H28C34.6333 10 40.2833 12.3333 44.95 17C49.65 21.7 52 27.35 52 33.95V46C52 51.3333 49.3333 54 44 54H20C14.6667 54 12 51.3333 12 46V18C12 12.6667 14.6667 10 20 10ZM20 13C16.6667 13 15 14.6667 15 18V46C15 49.3333 16.6667 51 20 51H44C47.3333 51 49 49.3333 49 46V33.95C49 28.1833 46.9333 23.25 42.8 19.15C38.7333 15.05 33.8 13 28 13H20ZM19 33V30H32V34L23 44H32V47H19V43L28 33H19Z" fill="white"/>
</svg>
