<svg width="64" height="64" viewBox="0 0 64 64" fill="none" xmlns="http://www.w3.org/2000/svg">
<path d="M27 8H37C39.6667 8 41 9.33333 41 12V23H52C54.6667 23 56 24.3333 56 27V37C56 39.6667 54.6667 41 52 41H41V52C41 54.6667 39.6667 56 37 56H27C24.3333 56 23 54.6667 23 52V41H12C9.33333 41 8 39.6667 8 37V27C8 24.3333 9.33333 23 12 23H23V12C23 9.33333 24.3333 8 27 8ZM37 11H27C26.3333 11 26 11.3333 26 12V52C26 52.6667 26.3333 53 27 53H37C37.6667 53 38 52.6667 38 52V38H52C52.6667 38 53 37.6667 53 37V27C53 26.3333 52.6667 26 52 26H38V12C38 11.3333 37.6667 11 37 11ZM16 28.3L12.85 30.4C12.5167 30.6333 12.2667 30.95 12.1 31.35C11.9667 31.7833 11.9667 32.2 12.1 32.6L12.85 33.65L16 35.7C16.4 35.9667 16.8333 36.0667 17.3 36C17.8 35.9333 18.2 35.7167 18.5 35.35C18.8333 34.9833 19 34.55 19 34.05V29.9C19 29.4333 18.8333 29.0167 18.5 28.65C18.2 28.2833 17.8 28.0833 17.3 28.05C16.8333 27.95 16.4 28.0333 16 28.3Z" fill="white"/>
</svg>
