<svg width="64" height="64" viewBox="0 0 64 64" fill="none" xmlns="http://www.w3.org/2000/svg">
<path d="M46 15H26C22.4333 15 19.3667 16.2833 16.8 18.85C14.2667 21.3833 13 24.4333 13 28V44C13 47.3333 14.6667 49 18 49H46C49.3333 49 51 47.3333 51 44V20C51 16.6667 49.3333 15 46 15ZM25 42V22H29V38H39V42H25ZM46 12L48.15 12.2C50.0167 12.5 51.4333 13.25 52.4 14.45C53.4667 15.7833 54 17.6333 54 20V44C54 49.3333 51.3333 52 46 52H18C12.6667 52 10 49.3333 10 44V28C10 23.6 11.5667 19.8333 14.7 16.7C17.8333 13.5667 21.6 12 26 12H46Z" fill="white"/>
</svg>
