<svg width="64" height="64" viewBox="0 0 64 64" fill="none" xmlns="http://www.w3.org/2000/svg">
<g clip-path="url(#clip0_1_5745)">
<path fill-rule="evenodd" clip-rule="evenodd" d="M56 32C56 45.2548 45.2548 56 32 56C18.7452 56 8 45.2548 8 32C8 18.7452 18.7452 8 32 8C45.2548 8 56 18.7452 56 32ZM53 32C53 43.598 43.598 53 32 53C20.402 53 11 43.598 11 32C11 20.402 20.402 11 32 11C43.598 11 53 20.402 53 32ZM39.25 40.2C40.4167 39.0333 41 37.6333 41 36C41 34.4667 40.5 33.1333 39.5 32C40.5 30.8667 41 29.5333 41 28C41 26.3667 40.4167 24.9667 39.25 23.8L39.2 23.75C38.0333 22.5833 36.6333 22 35 22H25V42H35C36.6333 42 38.0333 41.4167 39.2 40.25L39.25 40.2ZM36.45 26.65C36.8167 27.0167 37 27.4667 37 28C37 28.5667 36.8167 29.0333 36.45 29.4H36.4C36 29.8 35.5333 30 35 30H29V26H35C35.5333 26 35.9833 26.1833 36.35 26.55L36.45 26.65ZM36.45 34.6C36.8167 34.9667 37 35.4333 37 36C37 36.5333 36.8167 36.9833 36.45 37.35L36.35 37.45C35.9833 37.8167 35.5333 38 35 38H29V34H35C35.5333 34 36 34.2 36.4 34.6H36.45Z" fill="white"/>
</g>
<defs>
<clipPath id="clip0_1_5745">
<rect width="64" height="64" fill="white"/>
</clipPath>
</defs>
</svg>
