<svg width="64" height="64" viewBox="0 0 64 64" fill="none" xmlns="http://www.w3.org/2000/svg">
<path d="M20 29H44V35H20V29ZM46.85 17.15C42.7833 13.05 37.8333 11 32 11C26.2 11 21.25 13.05 17.15 17.15C13.05 21.25 11 26.2 11 32C11 37.8333 13.05 42.7833 17.15 46.85C21.25 50.95 26.2 53 32 53C37.8333 53 42.7833 50.95 46.85 46.85C50.95 42.7833 53 37.8333 53 32C53 26.2 50.95 21.25 46.85 17.15ZM56 32C56 38.6667 53.65 44.3167 48.95 48.95C44.3167 53.65 38.6667 56 32 56C25.3667 56 19.7 53.65 15 48.95C10.3333 44.3167 8 38.6667 8 32C8 25.3667 10.3333 19.7 15 15C19.7 10.3333 25.3667 8 32 8C38.6667 8 44.3167 10.3333 48.95 15C53.65 19.7 56 25.3667 56 32Z" fill="white"/>
</svg>
