<svg width="64" height="64" viewBox="0 0 64 64" fill="none" xmlns="http://www.w3.org/2000/svg">
<path d="M28 19C26.6667 19 26 19.6667 26 21V25C26 26.3334 26.6667 27 28 27H36C37.3333 27 38 26.3334 38 25V21C38 19.6667 37.3333 19 36 19H28ZM43 32C43 31.1667 42.7333 30.45 42.2 29.85C41.6 29.2834 40.8667 29 40 29C39.1667 29 38.4667 29.2834 37.9 29.85C37.3 30.45 37 31.1667 37 32C37 32.8667 37.3 33.6 37.9 34.2C38.4667 34.7334 39.1667 35 40 35C40.8667 35 41.6 34.7334 42.2 34.2C42.7333 33.6 43 32.8667 43 32ZM45 26.5C45 26.0667 44.85 25.7 44.55 25.4C44.2833 25.1334 43.9333 25 43.5 25C43.0667 25 42.7167 25.1334 42.45 25.4C42.15 25.7 42 26.0667 42 26.5C42 26.9 42.15 27.25 42.45 27.55C42.7167 27.85 43.0667 28 43.5 28L44.55 27.55C44.85 27.25 45 26.9 45 26.5ZM48 29.5C48 29.0667 47.85 28.7 47.55 28.4C47.2833 28.1334 46.9333 28 46.5 28C46.0667 28 45.7167 28.1334 45.45 28.4C45.15 28.7 45 29.0667 45 29.5C45 29.9 45.15 30.25 45.45 30.55C45.7167 30.85 46.0667 31 46.5 31L47.55 30.55L48 29.5ZM51 26.5C51 26.0667 50.85 25.7 50.55 25.4C50.2833 25.1334 49.9333 25 49.5 25C49.0667 25 48.7167 25.1334 48.45 25.4C48.15 25.7 48 26.0667 48 26.5C48 26.9 48.15 27.25 48.45 27.55C48.7167 27.85 49.0667 28 49.5 28C49.9333 28 50.2833 27.85 50.55 27.55L51 26.5ZM48 23.5C48 23.0667 47.85 22.7 47.55 22.4C47.2833 22.1334 46.9333 22 46.5 22C46.0667 22 45.7167 22.1334 45.45 22.4C45.15 22.7 45 23.0667 45 23.5C45 23.9 45.15 24.25 45.45 24.55C45.7167 24.85 46.0667 25 46.5 25L47.55 24.55L48 23.5ZM39.5 17.45C39.8667 17.45 40.1 17.55 40.2 17.75H41.4C42.4667 17.7834 43.1167 17.6167 43.35 17.25H43.7V16.65C44.5 16.1834 45.5333 15.9667 46.8 16C47.9333 16 48.9 16.2167 49.7 16.65V17.25L50.3 17.55C51.3667 18.95 52.2833 20.7834 53.05 23.05L54.95 30.65C55.5167 33.1834 55.85 35.9167 55.95 38.85C56.15 40.95 55.75 42.75 54.75 44.25C53.9167 45.5167 52.5833 46.1 50.75 46C49.1833 45.8667 48.05 45.25 47.35 44.15L45.35 40.5L43.75 35.8L42.85 35.25C41.8833 36.2167 40.7333 36.6334 39.4 36.5C38.3333 36.5 37.2833 36.0667 36.25 35.2H27.75C26.7167 36.0667 25.6667 36.5 24.6 36.5C23.2667 36.6334 22.1167 36.2167 21.15 35.25C20.6833 35.35 20.3833 35.5334 20.25 35.8L18.65 40.5L16.6 44.15C15.9333 45.25 14.8167 45.8667 13.25 46C11.4167 46.1 10.0833 45.5167 9.25 44.25C8.25 42.75 7.85 40.95 8.05 38.85C8.15 35.9167 8.48333 33.1834 9.05 30.65L10.95 23.05C11.7167 20.7834 12.6333 18.95 13.7 17.55L14.3 17.25V16.65C15.0667 16.2167 16.0333 16 17.2 16C18.4667 15.9667 19.5 16.1834 20.3 16.65V17.25H20.65C20.8833 17.6167 21.5333 17.7834 22.6 17.75H23.8C23.8667 17.55 24.1 17.45 24.5 17.45H39.5ZM23 24H21L19 26L21 28H23V24ZM16 21V23L18 25L20 23V21H16ZM27 32C27 31.1667 26.7333 30.45 26.2 29.85C25.6 29.2834 24.8667 29 24 29C23.1667 29 22.4667 29.2834 21.9 29.85C21.3 30.45 21 31.1667 21 32C21 32.8667 21.3 33.6 21.9 34.2C22.4667 34.7334 23.1667 35 24 35C24.8667 35 25.6 34.7334 26.2 34.2C26.7333 33.6 27 32.8667 27 32ZM16 31H20V29L18 27L16 29V31ZM13 24V28H15L17 26L15 24H13Z" fill="white"/>
</svg>
