<svg width="64" height="64" viewBox="0 0 64 64" fill="none" xmlns="http://www.w3.org/2000/svg">
<path d="M12 12.8V17.25L12.2 17.75L13 18L13.75 17.75V17.8L14 17.25V12.8L13.75 12.25V12.3C13.55 12.1 13.3 12 13 12C12.7 12 12.4333 12.1 12.2 12.3L12.25 12.2L12 12.8ZM10.85 10.8L10.9 10.75C11.4667 10.25 12.1667 10 13 10C13.7667 10 14.45 10.25 15.05 10.75L15.1 10.8C15.7 11.3667 16 12.0333 16 12.8V17.25C16 17.9833 15.7 18.65 15.1 19.25L15.05 19.3C14.45 19.7667 13.7667 20 13 20C12.1667 20 11.4667 19.7667 10.9 19.3L10.85 19.2C10.2833 18.6333 10 17.9833 10 17.25V12.8C10 12.0333 10.2833 11.3667 10.85 10.8ZM20.1 14L20.45 13.9L20.7 13.7H20.75L21 13L20.7 12.25C20.5333 12.0833 20.3167 12 20.05 12H19V14H20.1ZM19 19L18.7 19.7C18.5 19.9 18.2667 20 18 20L17.3 19.7C17.1 19.5 17 19.2667 17 19V11C17 10.7333 17.1 10.5 17.3 10.3C17.5 10.1 17.7333 10 18 10H20.05C20.85 10 21.5333 10.2833 22.1 10.85C22.7 11.45 23 12.1667 23 13C23 13.8333 22.7 14.5333 22.1 15.1V15.15L21.45 15.65L21.35 15.7L20.1 16H19V19ZM25 12L24.3 11.7C24.1 11.5 24 11.2667 24 11C24 10.7333 24.1 10.5 24.3 10.3C24.5 10.1 24.7333 10 25 10H29L29.7 10.3L30 11L29.7 11.7L29 12H28V19L27.7 19.7C27.5 19.9 27.2667 20 27 20L26.3 19.7L26 19V12H25ZM36 12.8V17.25L36.2 17.75L37 18L37.75 17.75V17.8L38 17.25V12.8L37.75 12.25V12.3C37.55 12.1 37.3 12 37 12C36.7 12 36.4333 12.1 36.2 12.3L36.25 12.2L36 12.8ZM34.85 10.8L34.9 10.75C35.4667 10.25 36.1667 10 37 10C37.7667 10 38.45 10.25 39.05 10.75L39.1 10.8C39.7 11.3667 40 12.0333 40 12.8V17.25C40 17.9833 39.7 18.65 39.1 19.25L39.05 19.3C38.45 19.7667 37.7667 20 37 20C36.1667 20 35.4667 19.7667 34.9 19.3L34.85 19.2C34.2833 18.6333 34 17.9833 34 17.25V12.8C34 12.0333 34.2833 11.3667 34.85 10.8ZM33 19L32.7 19.7L32 20C31.7333 20 31.5 19.9 31.3 19.7C31.1 19.5 31 19.2667 31 19V11C31 10.7333 31.1 10.5 31.3 10.3C31.5 10.1 31.7333 10 32 10C32.2667 10 32.5 10.1 32.7 10.3L33 11V19ZM41 12.8C41 12.0333 41.2833 11.3667 41.85 10.8L41.9 10.75C42.4667 10.25 43.1667 10 44 10C44.7667 10 45.45 10.25 46.05 10.75L46.1 10.8C46.7 11.3667 47 12.0333 47 12.8V19L46.7 19.7L46 20L45.3 19.7C45.1 19.5 45 19.2667 45 19V12.8L44.75 12.25V12.3C44.55 12.1 44.3 12 44 12C43.7 12 43.4333 12.1 43.2 12.3L43.25 12.2C43.0833 12.3667 43 12.5667 43 12.8V19L42.7 19.7L42 20L41.3 19.7C41.1 19.5 41 19.2667 41 19V12.8ZM51 12C50.7333 12 50.5 12.1 50.3 12.3C50.1 12.5 50 12.7333 50 13C50 13.2667 50.1 13.5 50.3 13.7L50.95 14H51.05C51.8167 14 52.5 14.3 53.1 14.9C53.7 15.5 54 16.2 54 17C54 17.8 53.7 18.5 53.1 19.1C52.5 19.7 51.8 20 51 20H49C48.7333 20 48.5 19.9 48.3 19.7C48.1 19.5 48 19.2667 48 19C48 18.7333 48.1 18.5 48.3 18.3C48.5 18.1 48.7333 18 49 18H51C51.2667 18 51.5 17.9 51.7 17.7L52 17L51.7 16.3C51.5 16.1 51.2833 16 51.05 16H50.95C50.1833 16 49.5 15.7 48.9 15.1C48.3 14.5 48 13.8 48 13C48 12.2 48.3 11.5 48.9 10.9C49.5 10.3 50.2 10 51 10H53C53.2667 10 53.5 10.1 53.7 10.3L54 11L53.7 11.7L53 12H51ZM32 26C34.2 26 36.0833 26.7833 37.65 28.35C39.2167 29.9167 40 31.8 40 34V46L39.85 47.6C39.55 49.1333 38.8167 50.4833 37.65 51.65C36.0833 53.2167 34.2 54 32 54C29.8 54 27.9167 53.2167 26.35 51.65C25.1833 50.4833 24.45 49.1333 24.15 47.6L24 46V34C24 31.8 24.7833 29.9167 26.35 28.35C27.9167 26.7833 29.8 26 32 26ZM32 29C30.6333 29 29.4667 29.5 28.5 30.5C27.5 31.4667 27 32.6333 27 34V46L27.1 47V47.05C27.3 47.9833 27.7667 48.8167 28.5 49.55C29.4667 50.5167 30.6333 51 32 51C33.3667 51 34.55 50.5167 35.55 49.55C36.25 48.8167 36.7 47.9833 36.9 47.05V47L37 46V34C37 32.6333 36.5167 31.4667 35.55 30.5C34.55 29.5 33.3667 29 32 29Z" fill="white"/>
</svg>
