<svg width="64" height="64" viewBox="0 0 64 64" fill="none" xmlns="http://www.w3.org/2000/svg">
<path d="M28 19L27.7 19.7C27.5 19.9 27.2667 20 27 20L26.3 19.7L26 19V16H24V19L23.7 19.7L23 20C22.7333 20 22.5 19.9 22.3 19.7C22.1 19.5 22 19.2667 22 19V11C22 10.7333 22.1 10.5 22.3 10.3C22.5 10.1 22.7333 10 23 10C23.2667 10 23.5 10.1 23.7 10.3L24 11V14H26V11C26 10.7333 26.1 10.5 26.3 10.3C26.5 10.1 26.7333 10 27 10C27.2667 10 27.5 10.1 27.7 10.3L28 11V19ZM18 12C17.7333 12 17.5 12.1 17.3 12.3C17.1 12.5 17 12.7333 17 13C17 13.2667 17.1 13.5 17.3 13.7C17.5 13.9 17.7167 14 17.95 14H18.05C18.8167 14 19.5 14.3 20.1 14.9C20.7 15.5 21 16.2 21 17C21 17.8 20.7 18.5 20.1 19.1C19.5 19.7 18.8 20 18 20H16L15.3 19.7C15.1 19.5 15 19.2667 15 19C15 18.7333 15.1 18.5 15.3 18.3C15.5 18.1 15.7333 18 16 18H18C18.2667 18 18.5 17.9 18.7 17.7L19 17L18.7 16.3C18.5 16.1 18.2833 16 18.05 16H17.95C17.1833 16 16.5 15.7 15.9 15.1C15.3 14.5 15 13.8 15 13C15 12.2 15.3 11.5 15.9 10.9C16.5 10.3 17.2 10 18 10H20C20.2667 10 20.5 10.1 20.7 10.3L21 11L20.7 11.7L20 12H18ZM39.1 14L39.45 13.9L39.7 13.7H39.75L40 13L39.7 12.25C39.5333 12.0833 39.3167 12 39.05 12H38V14H39.1ZM29 12.8C29 12.0333 29.2833 11.3667 29.85 10.8L29.9 10.75C30.4667 10.25 31.1667 10 32 10C32.7667 10 33.45 10.25 34.05 10.75L34.1 10.8C34.7 11.3667 35 12.0333 35 12.8V19L34.7 19.7C34.5 19.9 34.2667 20 34 20L33.3 19.7C33.1 19.5 33 19.2667 33 19V17H31V19L30.7 19.7C30.5 19.9 30.2667 20 30 20L29.3 19.7C29.1 19.5 29 19.2667 29 19V12.8ZM31 12.8V15H33V12.8L32.75 12.25V12.3C32.55 12.1 32.3 12 32 12C31.7 12 31.4333 12.1 31.2 12.3L31.25 12.2C31.0833 12.3667 31 12.5667 31 12.8ZM41.1 15.1V15.15L40.45 15.65L41.9 18.55L41.95 19.35L41.45 19.9L40.7 19.95C40.4333 19.85 40.2333 19.6833 40.1 19.45L38.4 16H38V19L37.7 19.7L37 20L36.3 19.7C36.1 19.5 36 19.2667 36 19V11C36 10.7333 36.1 10.5 36.3 10.3C36.5 10.1 36.7333 10 37 10H39.05C39.85 10 40.5333 10.2833 41.1 10.85C41.7 11.45 42 12.1667 42 13C42 13.8333 41.7 14.5333 41.1 15.1ZM43 11C43 10.7333 43.1 10.5 43.3 10.3C43.5 10.1 43.7333 10 44 10H48C48.2667 10 48.5 10.1 48.7 10.3L49 11L48.7 11.7C48.5 11.9 48.2667 12 48 12H45V14H48C48.2667 14 48.5 14.1 48.7 14.3L49 15L48.7 15.7C48.5 15.9 48.2667 16 48 16H45V18H48C48.2667 18 48.5 18.1 48.7 18.3L49 19L48.7 19.7C48.5 19.9 48.2667 20 48 20H44C43.7333 20 43.5 19.9 43.3 19.7C43.1 19.5 43 19.2667 43 19V11ZM32 26C34.2 26 36.0833 26.7833 37.65 28.35C39.2167 29.9167 40 31.8 40 34V46C40 48.2 39.2167 50.0833 37.65 51.65C36.0833 53.2167 34.2 54 32 54C29.8 54 27.9167 53.2167 26.35 51.65C24.7833 50.0833 24 48.2 24 46V34C24 31.8 24.7833 29.9167 26.35 28.35C27.9167 26.7833 29.8 26 32 26ZM28.5 30.5C27.5 31.4667 27 32.6333 27 34V46C27 47.3667 27.5 48.55 28.5 49.55C29.4667 50.5167 30.6333 51 32 51C33.3667 51 34.55 50.5167 35.55 49.55C36.5167 48.55 37 47.3667 37 46V34C37 32.6333 36.5167 31.4667 35.55 30.5C34.55 29.5 33.3667 29 32 29C30.6333 29 29.4667 29.5 28.5 30.5Z" fill="white"/>
</svg>
