<svg width="64" height="64" viewBox="0 0 64 64" fill="none" xmlns="http://www.w3.org/2000/svg">
<path d="M21 25H28C29.2667 25 30.3833 25.3333 31.35 26L32.25 26.75C33.4167 27.9167 34 29.3333 34 31C34 32.1 33.7333 33.1 33.2 34L32.25 35.2L32.2 35.25L31.45 35.9L34.5 42H30.5L28 37H25V42H21V25ZM43 25V42H39V34.95V34.85V29.95H36V28L39 25H43ZM12 30C12 24.4667 13.9333 19.7333 17.8 15.8C21.7333 11.9333 26.4667 10 32 10C37.5 10 42.2 11.9333 46.1 15.8C48.6 18.3 50.3167 21.1333 51.25 24.3L51.8 26.9L52 29.6V46V46.45C51.9 48.25 51.2667 49.8333 50.1 51.2L49.65 51.65L49.45 51.85C48.4833 52.75 47.4167 53.3667 46.25 53.7L44 54H20C17.9 54 16.0833 53.2833 14.55 51.85L14.35 51.65C12.7833 50.0833 12 48.2 12 46V30ZM28 29H25V33H28C28.5333 33 28.9833 32.8167 29.35 32.45L29.45 32.35C29.8167 31.9833 30 31.5333 30 31C30 30.4667 29.8 30 29.4 29.6C29 29.2 28.5333 29 28 29ZM32 13C27.3 13 23.2833 14.6333 19.95 17.9L19.9 17.95C16.6333 21.2833 15 25.3 15 30V46C15 47.3667 15.5 48.55 16.5 49.55C17.4667 50.5167 18.6333 51 20 51H44L45.45 50.85C46.2167 50.5833 46.9167 50.15 47.55 49.55L47.95 49.15C48.5833 48.3167 48.9333 47.3667 49 46.3V46V29.6L48.85 27.35L48.35 25.1L48.4 25.15C47.5667 22.45 46.1 20.05 44 17.95C40.6667 14.65 36.6667 13 32 13Z" fill="white"/>
</svg>
