<svg width="64" height="64" viewBox="0 0 64 64" fill="none" xmlns="http://www.w3.org/2000/svg">
<path d="M27 11V18.75L32.05 23.8L37 18.8V11H27ZM40 10V19.15C40 19.7167 39.8167 20.2 39.45 20.6L33.45 26.6C33.05 26.9667 32.5667 27.15 32 27.15C31.4333 27.15 30.9667 26.9667 30.6 26.6L24.6 20.6C24.2 20.2 24 19.7167 24 19.15V10C24 9.43333 24.2 8.96667 24.6 8.6C24.9667 8.2 25.4333 8 26 8H38C38.5667 8 39.05 8.2 39.45 8.6C39.8167 8.96667 40 9.43333 40 10ZM56 26V38C56 38.5667 55.8167 39.05 55.45 39.45C55.05 39.8167 54.5667 40 54 40H44.85C44.2833 40 43.8167 39.8167 43.45 39.45L37.45 33.45C37.05 33.05 36.85 32.5667 36.85 32C36.85 31.4333 37.05 30.9667 37.45 30.6L43.45 24.6C43.8167 24.2 44.2833 24 44.85 24H54C54.5667 24 55.05 24.2 55.45 24.6C55.8167 24.9667 56 25.4333 56 26ZM45.3 27L40.3 32.05L45.25 37H53V27H45.3ZM33.45 37.45L39.45 43.45C39.8167 43.8167 40 44.2833 40 44.85V54C40 54.5667 39.8167 55.05 39.45 55.45C39.05 55.8167 38.5667 56 38 56H26C25.4333 56 24.9667 55.8167 24.6 55.45C24.2 55.05 24 54.5667 24 54V44.85C24 44.2833 24.2 43.8167 24.6 43.45L30.6 37.45C30.9667 37.05 31.4333 36.85 32 36.85C32.5667 36.85 33.05 37.05 33.45 37.45ZM19.15 40H10C9.43333 40 8.96667 39.8167 8.6 39.45C8.2 39.05 8 38.5667 8 38V26C8 25.4333 8.2 24.9667 8.6 24.6C8.96667 24.2 9.43333 24 10 24H19.15C19.7167 24 20.2 24.2 20.6 24.6L26.6 30.6C26.9667 30.9667 27.15 31.4333 27.15 32C27.15 32.5667 26.9667 33.05 26.6 33.45L20.6 39.45C20.2 39.8167 19.7167 40 19.15 40ZM11 37H18.8L23.8 32.05L18.75 27H11V37Z" fill="white"/>
</svg>
