<svg width="64" height="64" viewBox="0 0 64 64" fill="none" xmlns="http://www.w3.org/2000/svg">
<path d="M56 32C56 38.6667 53.65 44.3167 48.95 48.95C44.3167 53.65 38.6667 56 32 56C25.3667 56 19.7 53.65 15 48.95C10.3333 44.3167 8 38.6667 8 32C8 25.3667 10.3333 19.7 15 15C19.7 10.3333 25.3667 8 32 8C38.6667 8 44.3167 10.3333 48.95 15C53.65 19.7 56 25.3667 56 32ZM37.7 26.35C36.1333 24.7833 34.2333 24 32 24C29.8 24 27.9333 24.7833 26.4 26.35H26.35C24.7833 27.9167 24 29.8 24 32C24 34.2 24.7833 36.0833 26.35 37.65L26.4 37.7C27.9333 39.2333 29.8 40 32 40C34.2333 40 36.1333 39.2333 37.7 37.7C39.2333 36.1333 40 34.2333 40 32C40 29.7667 39.2333 27.8833 37.7 26.35ZM32 11C26.2 11 21.25 13.05 17.15 17.15C13.05 21.25 11 26.2 11 32C11 37.8333 13.05 42.7833 17.15 46.85C21.25 50.95 26.2 53 32 53C37.8333 53 42.7833 50.95 46.85 46.85C50.95 42.7833 53 37.8333 53 32C53 26.2 50.95 21.25 46.85 17.15C42.7833 13.05 37.8333 11 32 11ZM44 32C44 35.3333 42.8333 38.1667 40.5 40.5C38.1667 42.8333 35.3333 44 32 44C28.7 44 25.8833 42.8333 23.55 40.5C21.1833 38.1667 20 35.3333 20 32C20 28.6667 21.1833 25.8333 23.55 23.5C25.8833 21.1667 28.7 20 32 20C35.3333 20 38.1667 21.1667 40.5 23.5C42.8333 25.8333 44 28.6667 44 32Z" fill="#FF6666"/>
</svg>
