<svg width="64" height="64" viewBox="0 0 64 64" fill="none" xmlns="http://www.w3.org/2000/svg">
<path d="M32 12C28.7667 12 25.8167 12.6667 23.15 14C21.25 14.9333 19.4833 16.2167 17.85 17.85C13.95 21.75 12 26.4667 12 32C12 37.5333 13.95 42.2333 17.85 46.1V46.15C21.75 50.05 26.4667 52 32 52C37.5333 52 42.2333 50.05 46.1 46.15L46.15 46.1C50.05 42.2333 52 37.5333 52 32C52 26.4667 50.05 21.75 46.15 17.85H46.1C44.5 16.2167 42.75 14.9333 40.85 14C38.1833 12.6667 35.2333 12 32 12ZM56 32C56 38.6667 53.65 44.3167 48.95 48.95C44.3167 53.65 38.6667 56 32 56C25.3667 56 19.7 53.65 15 48.95C10.3333 44.3167 8 38.6667 8 32C8 25.3667 10.3333 19.7 15 15L16.05 14C20.55 10 25.8667 8 32 8C38.1667 8 43.4667 10 47.9 14L48.95 15C53.65 19.7 56 25.3667 56 32ZM44 35.75C44.0333 37.2167 43.3833 38.5 42.05 39.6L42.1 39.5C40.9667 40.5 39.6 41 38 41C36.4 41 35.0333 40.5167 33.9 39.55C32.6667 38.55 32.0333 37.3667 32 36H36.1L36.45 36.45V36.5C36.8833 36.8333 37.4 37 38 37C38.6 37 39.1 36.8333 39.5 36.5L39.55 36.45L40 35.75L39.6 35C39.3333 34.7667 39.0333 34.6167 38.7 34.55L38.15 34.5H36V30.5H38.15C38.7167 30.5 39.2 30.3333 39.6 30L40 29.25C39.9667 28.9833 39.8167 28.75 39.55 28.55L39.5 28.5C39.1 28.1667 38.6 28 38 28C37.4 28 36.8833 28.1667 36.45 28.5V28.55L36.1 29H32C32.0333 27.6333 32.6667 26.45 33.9 25.45C35.0333 24.4833 36.4 24 38 24C39.6 24 40.9667 24.5 42.1 25.5L42.05 25.4C43.3833 26.5 44.0333 27.7833 44 29.25C44.0333 30.4833 43.6167 31.5667 42.75 32.5C43.6167 33.4333 44.0333 34.5167 44 35.75ZM20 24H24V37H30V41H20V24Z" fill="white"/>
</svg>
