<svg width="64" height="64" viewBox="0 0 64 64" fill="none" xmlns="http://www.w3.org/2000/svg">
<path d="M56 32C56 38.6667 53.65 44.3167 48.95 48.95C44.3167 53.65 38.6667 56 32 56C25.3667 56 19.7 53.65 15 48.95C10.3333 44.3167 8 38.6667 8 32C8 25.3667 10.3333 19.7 15 15L16.05 14C20.55 10 25.8667 8 32 8C38.1667 8 43.4667 10 47.9 14L48.95 15C53.65 19.7 56 25.3667 56 32ZM23 41H19V24H25C26.6667 24 28.0833 24.5833 29.25 25.75C30.4167 26.9167 31 28.3333 31 30C31 31.6333 30.4167 33.0333 29.25 34.2L29.2 34.25L28.45 34.9L31.5 41H27.5L25 36H23V41ZM25 28H23V32H25C25.5333 32 25.9833 31.8167 26.35 31.45L26.45 31.35C26.8167 30.9833 27 30.5333 27 30C27 29.4667 26.8 29 26.4 28.6C26 28.2 25.5333 28 25 28ZM46 35.75C46.0333 37.2167 45.3833 38.5 44.05 39.6L44.1 39.5C42.9667 40.5 41.6 41 40 41C38.4 41 37.0333 40.5167 35.9 39.55C34.6667 38.55 34.0333 37.3667 34 36H38.1L38.45 36.45V36.5C38.8833 36.8333 39.4 37 40 37C40.6 37 41.1 36.8333 41.5 36.5L41.55 36.45L42 35.75C41.9667 35.45 41.8333 35.2 41.6 35C41.3333 34.7667 41.0333 34.6167 40.7 34.55L40.15 34.5H38V30.5H40.15C40.7167 30.5 41.2 30.3333 41.6 30L42 29.25L41.55 28.55L41.5 28.5C41.1 28.1667 40.6 28 40 28C39.4 28 38.8833 28.1667 38.45 28.5V28.55L38.1 29H34C34.0333 27.6333 34.6667 26.45 35.9 25.45C37.0333 24.4833 38.4 24 40 24C41.6 24 42.9667 24.5 44.1 25.5L44.05 25.4C45.3833 26.5 46.0333 27.7833 46 29.25C46.0333 30.4833 45.6167 31.5667 44.75 32.5C45.6167 33.4333 46.0333 34.5167 46 35.75ZM32 12C28.7667 12 25.8167 12.6667 23.15 14C21.25 14.9333 19.4833 16.2167 17.85 17.85C13.95 21.75 12 26.4667 12 32C12 37.5333 13.95 42.2333 17.85 46.1V46.15C21.75 50.05 26.4667 52 32 52C37.5333 52 42.2333 50.05 46.1 46.15L46.15 46.1C50.05 42.2333 52 37.5333 52 32C52 26.4667 50.05 21.75 46.15 17.85H46.1C44.5 16.2167 42.75 14.9333 40.85 14C38.1833 12.6667 35.2333 12 32 12Z" fill="white"/>
</svg>
