<svg width="64" height="64" viewBox="0 0 64 64" fill="none" xmlns="http://www.w3.org/2000/svg">
<path d="M48 30C48.1667 34.9333 49.5 39.4667 52 43.6C54.6667 47.9667 56 50.6333 56 51.6C56 52.8333 55.5167 53.8833 54.55 54.75C53.6833 55.5833 52.5667 56 51.2 56H24C19.6 56 15.8333 54.4333 12.7 51.3C9.56667 48.1667 8 44.4 8 40V16C8 13.8 8.78333 11.9167 10.35 10.35C11.9167 8.78333 13.8 8 16 8H40C42.2 8 44.0833 8.78333 45.65 10.35C47.2167 11.9167 48 13.8 48 16V30ZM49.45 45.2V45.15C46.6833 40.5833 45.2 35.5667 45 30.1V30V16C45 14.6333 44.5167 13.4667 43.55 12.5C42.55 11.5 41.3667 11 40 11H16C14.6333 11 13.4667 11.5 12.5 12.5C11.5 13.4667 11 14.6333 11 16V40C11 43.5667 12.2833 46.6333 14.85 49.2C17.3833 51.7333 20.4333 53 24 53H51.2C51.7 53 52.1333 52.8667 52.5 52.6L52.55 52.55L53 51.6C52.8333 50.9 51.65 48.7667 49.45 45.2ZM37.5 27.4C37.2333 27.1333 36.9 27 36.5 27H34.95H34.85C34.65 27.0333 34.4667 27.1333 34.3 27.3C34.1 27.5 34 27.7333 34 28H30L30.1 27C30.2667 26.0667 30.7 25.2333 31.4 24.5L31.5 24.4C32.4333 23.5 33.55 23.0333 34.85 23H36.5C38 23 39.2833 23.5333 40.35 24.6L40.4 24.65L41.4 26C42.2333 28.2333 41.9167 30.0833 40.45 31.55L36 36H42V40H34.95H34.85H30V36L37 29.45C37.8333 28.5833 38 27.9 37.5 27.4ZM15 23H22C23.6667 23 25.0833 23.5833 26.25 24.75C27.4167 25.9167 28 27.3333 28 29C28 30.6333 27.4167 32.0333 26.25 33.2L26.2 33.25L25.45 33.9L28.5 40H24.5L22 35H19V40H15V23ZM22 27H19V31H22C22.5333 31 22.9833 30.8167 23.35 30.45L23.45 30.35C23.8167 29.9833 24 29.5333 24 29C24 28.4667 23.8 28 23.4 27.6C23 27.2 22.5333 27 22 27Z" fill="white"/>
</svg>
