<svg width="64" height="64" viewBox="0 0 64 64" fill="none" xmlns="http://www.w3.org/2000/svg">
<path d="M42 24C42 24.5667 41.8 25.0333 41.4 25.4C41.0333 25.8 40.5667 26 40 26C39.4333 26 38.95 25.8 38.55 25.4C38.1833 25.0333 38 24.5667 38 24C38 23.4333 38.1833 22.95 38.55 22.55C38.95 22.1833 39.4333 22 40 22C40.5667 22 41.0333 22.1833 41.4 22.55C41.8 22.95 42 23.4333 42 24ZM34 24C34 24.5667 33.8 25.0333 33.4 25.4C33.0333 25.8 32.5667 26 32 26C31.4333 26 30.95 25.8 30.55 25.4C30.1833 25.0333 30 24.5667 30 24C30 23.4333 30.1833 22.95 30.55 22.55C30.95 22.1833 31.4333 22 32 22C32.5667 22 33.0333 22.1833 33.4 22.55C33.8 22.95 34 23.4333 34 24ZM34 32C34 32.5667 33.8 33.0333 33.4 33.4C33.0333 33.8 32.5667 34 32 34C31.4333 34 30.95 33.8 30.55 33.4C30.1833 33.0333 30 32.5667 30 32C30 31.4333 30.1833 30.95 30.55 30.55C30.95 30.1833 31.4333 30 32 30C32.5667 30 33.0333 30.1833 33.4 30.55C33.8 30.95 34 31.4333 34 32ZM42 32C42 32.5667 41.8 33.0333 41.4 33.4C41.0333 33.8 40.5667 34 40 34C39.4333 34 38.95 33.8 38.55 33.4C38.1833 33.0333 38 32.5667 38 32C38 31.4333 38.1833 30.95 38.55 30.55C38.95 30.1833 39.4333 30 40 30C40.5667 30 41.0333 30.1833 41.4 30.55C41.8 30.95 42 31.4333 42 32ZM50 24C50 24.5667 49.8 25.0333 49.4 25.4C49.0333 25.8 48.5667 26 48 26C47.4333 26 46.95 25.8 46.55 25.4C46.1833 25.0333 46 24.5667 46 24C46 23.4333 46.1833 22.95 46.55 22.55C46.95 22.1833 47.4333 22 48 22C48.5667 22 49.0333 22.1833 49.4 22.55C49.8 22.95 50 23.4333 50 24ZM50 32C50 32.5667 49.8 33.0333 49.4 33.4C49.0333 33.8 48.5667 34 48 34C47.4333 34 46.95 33.8 46.55 33.4C46.1833 33.0333 46 32.5667 46 32C46 31.4333 46.1833 30.95 46.55 30.55C46.95 30.1833 47.4333 30 48 30C48.5667 30 49.0333 30.1833 49.4 30.55C49.8 30.95 50 31.4333 50 32ZM11 40C11 43.3333 12.6667 45 16 45H48C51.3333 45 53 43.3333 53 40V24C53 20.6667 51.3333 19 48 19H16C12.6667 19 11 20.6667 11 24V40ZM16 16H48C53.3333 16 56 18.6667 56 24V40C56 45.3333 53.3333 48 48 48H16C10.6667 48 8 45.3333 8 40V24C8 18.6667 10.6667 16 16 16ZM50 40C50 40.5667 49.8 41.0333 49.4 41.4C49.0333 41.8 48.5667 42 48 42C47.4333 42 46.95 41.8 46.55 41.4C46.1833 41.0333 46 40.5667 46 40C46 39.4333 46.1833 38.95 46.55 38.55C46.95 38.1833 47.4333 38 48 38C48.5667 38 49.0333 38.1833 49.4 38.55C49.8 38.95 50 39.4333 50 40ZM34 40C34 40.5667 33.8 41.0333 33.4 41.4C33.0333 41.8 32.5667 42 32 42C31.4333 42 30.95 41.8 30.55 41.4C30.1833 41.0333 30 40.5667 30 40C30 39.4333 30.1833 38.95 30.55 38.55C30.95 38.1833 31.4333 38 32 38C32.5667 38 33.0333 38.1833 33.4 38.55C33.8 38.95 34 39.4333 34 40ZM42 40C42 40.5667 41.8 41.0333 41.4 41.4C41.0333 41.8 40.5667 42 40 42C39.4333 42 38.95 41.8 38.55 41.4C38.1833 41.0333 38 40.5667 38 40C38 39.4333 38.1833 38.95 38.55 38.55C38.95 38.1833 39.4333 38 40 38C40.5667 38 41.0333 38.1833 41.4 38.55C41.8 38.95 42 39.4333 42 40ZM18 24C18 24.5667 17.8 25.0333 17.4 25.4C17.0333 25.8 16.5667 26 16 26C15.4333 26 14.95 25.8 14.55 25.4C14.1833 25.0333 14 24.5667 14 24C14 23.4333 14.1833 22.95 14.55 22.55C14.95 22.1833 15.4333 22 16 22C16.5667 22 17.0333 22.1833 17.4 22.55C17.8 22.95 18 23.4333 18 24ZM18 32C18 32.5667 17.8 33.0333 17.4 33.4C17.0333 33.8 16.5667 34 16 34C15.4333 34 14.95 33.8 14.55 33.4C14.1833 33.0333 14 32.5667 14 32C14 31.4333 14.1833 30.95 14.55 30.55C14.95 30.1833 15.4333 30 16 30C16.5667 30 17.0333 30.1833 17.4 30.55C17.8 30.95 18 31.4333 18 32ZM26 24C26 24.5667 25.8 25.0333 25.4 25.4C25.0333 25.8 24.5667 26 24 26C23.4333 26 22.95 25.8 22.55 25.4C22.1833 25.0333 22 24.5667 22 24C22 23.4333 22.1833 22.95 22.55 22.55C22.95 22.1833 23.4333 22 24 22C24.5667 22 25.0333 22.1833 25.4 22.55C25.8 22.95 26 23.4333 26 24ZM26 32C26 32.5667 25.8 33.0333 25.4 33.4C25.0333 33.8 24.5667 34 24 34C23.4333 34 22.95 33.8 22.55 33.4C22.1833 33.0333 22 32.5667 22 32C22 31.4333 22.1833 30.95 22.55 30.55C22.95 30.1833 23.4333 30 24 30C24.5667 30 25.0333 30.1833 25.4 30.55C25.8 30.95 26 31.4333 26 32ZM26 40C26 40.5667 25.8 41.0333 25.4 41.4C25.0333 41.8 24.5667 42 24 42C23.4333 42 22.95 41.8 22.55 41.4C22.1833 41.0333 22 40.5667 22 40C22 39.4333 22.1833 38.95 22.55 38.55C22.95 38.1833 23.4333 38 24 38C24.5667 38 25.0333 38.1833 25.4 38.55C25.8 38.95 26 39.4333 26 40ZM18 40C18 40.5667 17.8 41.0333 17.4 41.4C17.0333 41.8 16.5667 42 16 42C15.4333 42 14.95 41.8 14.55 41.4C14.1833 41.0333 14 40.5667 14 40C14 39.4333 14.1833 38.95 14.55 38.55C14.95 38.1833 15.4333 38 16 38C16.5667 38 17.0333 38.1833 17.4 38.55C17.8 38.95 18 39.4333 18 40Z" fill="white"/>
</svg>
