<svg width="64" height="64" viewBox="0 0 64 64" fill="none" xmlns="http://www.w3.org/2000/svg">
<path d="M14.55 45.2C12.35 48.7667 11.1667 50.9 11 51.6C11 51.9667 11.15 52.2833 11.45 52.55L11.5 52.6C11.8667 52.8667 12.3 53 12.8 53H40C43.5667 53 46.6167 51.7333 49.15 49.2C51.7167 46.6333 53 43.5667 53 40V16C53 14.6333 52.5 13.4667 51.5 12.5C50.5333 11.5 49.3667 11 48 11H24C22.6333 11 21.45 11.5 20.45 12.5C19.4833 13.4667 19 14.6333 19 16V30V30.1C18.8 35.5667 17.3167 40.5833 14.55 45.15V45.2ZM44.5 27.4C44.2333 27.1333 43.9 27 43.5 27H41.95H41.85C41.65 27.0333 41.4667 27.1333 41.3 27.3C41.1 27.5 41 27.7333 41 28H37L37.1 27C37.2667 26.0667 37.7 25.2333 38.4 24.5L38.5 24.4C39.4333 23.5 40.55 23.0333 41.85 23H43.5C45 23 46.2833 23.5333 47.35 24.6L47.4 24.65L48.4 26C49.2333 28.2333 48.9167 30.0833 47.45 31.55L43 36H49V40H41.95H41.85H37V36L44 29.45C44.8333 28.5833 45 27.9 44.5 27.4ZM16 30V16C16 13.8 16.7833 11.9167 18.35 10.35C19.9167 8.78333 21.8 8 24 8H48C50.2 8 52.0833 8.78333 53.65 10.35C55.2167 11.9167 56 13.8 56 16V40C56 44.4 54.4333 48.1667 51.3 51.3C48.1667 54.4333 44.4 56 40 56H12.8C11.4333 56 10.3167 55.5833 9.45 54.75C8.48333 53.8833 8 52.8333 8 51.6C8 50.6333 9.33333 47.9667 12 43.6C14.5 39.4667 15.8333 34.9333 16 30ZM23 23H27V36H35V40H23V23Z" fill="white"/>
</svg>
