<svg width="64" height="64" viewBox="0 0 64 64" fill="none" xmlns="http://www.w3.org/2000/svg">
<path d="M42 25V42H38V34.95V34.85V29.95H35V28L38 25H42ZM49 46V29.6L48.85 27.35L48.35 25.1L48.4 25.15C47.5667 22.45 46.1 20.05 44 17.95C40.6667 14.65 36.6667 13 32 13C28.6333 13 25.6167 13.85 22.95 15.55C21.8833 16.1833 20.8833 16.9667 19.95 17.9L19.9 17.95C16.6333 21.2833 15 25.3 15 30V46C15 47.3667 15.5 48.55 16.5 49.55C17.4667 50.5167 18.6333 51 20 51H44L45.45 50.85C46.2167 50.5833 46.9167 50.15 47.55 49.55L47.95 49.15C48.5833 48.3167 48.9333 47.3667 49 46.3V46ZM12 30C12 24.4667 13.9333 19.7333 17.8 15.8C19.4 14.2333 21.1167 13 22.95 12.1C25.6833 10.7 28.7 10 32 10C37.5 10 42.2 11.9333 46.1 15.8C48.6 18.3 50.3167 21.1333 51.25 24.3L51.8 26.9L52 29.6V46V46.45C51.9 48.25 51.2667 49.8333 50.1 51.2L49.65 51.65L49.45 51.85C48.4833 52.75 47.4167 53.3667 46.25 53.7L44 54H20C17.8 54 15.9167 53.2167 14.35 51.65C12.7833 50.0833 12 48.2 12 46V30ZM22 25H26V38H34V42H22V25Z" fill="white"/>
</svg>
